,
.   http://www.scenetime.com/signup.php  ---&gt;  Hottest scene tracker on the net !!!  

    Join Now   http://www.scenetime.com/signup.php

    seed back for speed


 



...................................NFO:.................................................Paranormal Activity 3 2011 TS V2 XviD - MiSTERE
 
http://www.imdb.com/title/tt1778304/

Video
ID                               : 0
Format                           : MPEG-4 Visual
Format profile                   : Advanced Simple@L5
Format settings, BVOP            : 2
Format settings, QPel            : No
Format settings, GMC             : No warppoints
Format settings, Matrix          : Default (H.263)
Muxing mode                      : Packed bitstream
Codec ID                         : XVID
Codec ID/Hint                    : XviD
Duration                         : 1h 18mn
Bit rate                         : 1 754 Kbps
Width                            : 720 pixels
Height                           : 304 pixels
Display aspect ratio             : 2.35:1
Frame rate                       : 25.000 fps
Color space                      : YUV
Chroma subsampling               : 4:2:0
Bit depth                        : 8 bits
Scan type                        : Progressive
Compression mode                 : Lossy
Bits/(Pixel*Frame)               : 0.321
Stream size                      : 988 MiB (93%)
Writing library                  : XviD 64

Audio
ID                               : 1
Format                           : MPEG Audio
Format version                   : Version 1
Format profile                   : Layer 3
Mode                             : Joint stereo
Mode extension                   : MS Stereo
Codec ID                         : 55
Codec ID/Hint                    : MP3
Duration                         : 1h 18mn
Bit rate mode                    : Constant
Bit rate                         : 128 Kbps
Channel(s)                       : 2 channels
Sampling rate                    : 44.1 KHz
Compression mode                 : Lossy
Stream size                      : 72.1 MiB (7%)
Alignment                        : Split accross interleaves
Interleave, duration             : 40 ms (1.00 video frame)



Thanks to TNZ for the source files
Resized sharpened and tweaked RGB
Overall not a bad video, much better
than V1


[IMG]http://i.imgur.com/l6S3E.png[/IMG]
[IMG]http://i.imgur.com/Xsvch.png[/IMG]
[IMG]http://i.imgur.com/eh2t5.png[/IMG]
[IMG]http://i.imgur.com/Abagq.png[/IMG]
[IMG]http://i.imgur.com/ARBCV.png[/IMG]
[IMG]http://i.imgur.com/pjvvC.png[/IMG]